<svg 
          width="19.78"
          height="31.08" fill="none"
          xmlns="http://www.w3.org/2000/svg">
          <path d="M 12.548899804622497 0.3655664126078288 C 12.782983911994313 0.5999420086542766 12.914467016446583 0.9176489959160488 12.914467016446583 1.2489000956217449 C 12.914467016446583 1.580151195327441 12.782983911994313 1.8978581825892133 12.548899804622497 2.132233778635661 L 3.0155674986683167 11.665566762288412 L 12.548899804622497 21.198898951212566 C 12.713440912071714 21.35168544948101 12.833726203531278 21.54602517684301 12.897083122902288 21.761439641316734 C 12.960440042273298 21.97685410579046 12.964522749390746 22.20536808172862 12.908900737284826 22.42290814717611 C 12.853278725178907 22.6404482126236 12.740012526444797 22.83895922203859 12.58103386110828 22.997525533040367 C 12.422055195771762 23.156091844042145 12.223251487857532 23.268844652920965 12.005567698038067 23.323901494344078 C 11.788273921282372 23.379595937828224 11.559986961732577 23.375708019981783 11.344714304000219 23.31265131632487 C 11.12944164626786 23.24959461266796 10.93513751787823 23.129698882500332 10.782234006364485 22.965567906697594 L 0.36556641709547766 12.54889965057373 C 0.1314823097236622 12.314524054527283 0 11.996817861994108 0 11.665566762288412 C 0 11.334315662582716 0.1314823097236622 11.016609470049541 0.36556641709547766 10.782233874003094 L 10.782234006364485 0.3655664126078288 C 11.0166096052881 0.13148230810960135 11.334315801721397 0 11.665566905493492 0 C 11.996818009265587 0 12.314524205698882 0.13148230810960135 12.548899804622497 0.3655664126078288 Z" fill="rgb(0,0,0)"/>
        </svg>